<svg width="32" height="23" viewBox="0 0 32 23" fill="none" xmlns="http://www.w3.org/2000/svg">
  <path d="M17.2406 17.9163C10.9497 23.2906 6.48239 23.6696 4.1946 21.3799C2.08666 19.2719 3.83489 13.9847 8.09524 8.7632L0 0.669891H5.17314L13.2142 8.71099C8.13972 13.8164 5.18088 19.2526 6.71059 20.7823C7.97728 22.0509 11.876 20.293 16.0822 16.7579L17.2406 17.9163Z" fill="#B585FB"/>
  <path d="M31.998 22.3294H26.8249L18.7838 14.2883C23.8583 9.18479 26.8171 3.74671 25.2894 2.21894C24.0227 0.95031 20.1201 2.71015 15.9139 6.24529L14.7555 5.08689C21.0484 -0.289307 25.5176 -0.670294 27.8053 1.61943C29.9133 3.72736 28.167 9.01462 23.9047 14.2361L31.9999 22.3294H31.998Z" fill="#B585FB"/>
</svg>